<?xml version="1.0" standalone="no"?><!DOCTYPE svg PUBLIC "-//W3C//DTD SVG 1.1//EN" "http://www.w3.org/Graphics/SVG/1.1/DTD/svg11.dtd"><svg t="1648024012001" class="icon" viewBox="0 0 1024 1024" version="1.1" xmlns="http://www.w3.org/2000/svg" p-id="2241" xmlns:xlink="http://www.w3.org/1999/xlink" width="30" height="30"><defs><style type="text/css">@font-face { font-family: "feedback-iconfont"; src: url("//at.alicdn.com/t/font_1031158_u69w8yhxdu.woff2?t=1630033759944") format("woff2"), url("//at.alicdn.com/t/font_1031158_u69w8yhxdu.woff?t=1630033759944") format("woff"), url("//at.alicdn.com/t/font_1031158_u69w8yhxdu.ttf?t=1630033759944") format("truetype"); }
</style></defs><path d="M512 608.711111c-108.088889 0-187.733333-79.644444-187.733333-187.733333S403.911111 227.555556 512 227.555556s187.733333 79.644444 187.733333 187.733333-79.644444 193.422222-187.733333 193.422222z m0-68.266667c68.266667 0 125.155556-56.888889 125.155556-125.155555s-56.888889-125.155556-125.155556-125.155556-125.155556 56.888889-125.155556 125.155556 56.888889 125.155556 125.155556 125.155555z" fill="#3292FF" p-id="2242"></path><path d="M512 614.4c-113.777778 0-193.422222-85.333333-193.422222-193.422222C318.577778 307.2 403.911111 227.555556 512 227.555556s193.422222 85.333333 193.422222 193.422222S625.777778 614.4 512 614.4z m0-381.155556c-102.4 0-182.044444 79.644444-182.044444 182.044445 0 102.4 79.644444 182.044444 182.044444 182.044444s182.044444-79.644444 182.044444-182.044444c0-102.4-79.644444-182.044444-182.044444-182.044445z m0 312.888889c-73.955556 0-130.844444-56.888889-130.844444-130.844444S438.044444 284.444444 512 284.444444s130.844444 56.888889 130.844444 130.844445-56.888889 130.844444-130.844444 130.844444z m0-250.311111c-68.266667 0-119.466667 56.888889-119.466667 119.466667 0 68.266667 56.888889 119.466667 119.466667 119.466667s119.466667-56.888889 119.466667-119.466667-51.2-119.466667-119.466667-119.466667z" fill="#3292FF" p-id="2243"></path><path d="M512 1012.622222c-295.822222-221.866667-443.733333-420.977778-443.733333-591.644444C68.266667 170.666667 278.755556 11.377778 512 11.377778s443.733333 159.288889 443.733333 409.6c0 170.666667-147.911111 369.777778-443.733333 591.644444z m381.155556-591.644444c0-204.8-164.977778-352.711111-381.155556-352.711111S130.844444 216.177778 130.844444 420.977778c0 142.222222 125.155556 312.888889 381.155556 512 250.311111-199.111111 381.155556-369.777778 381.155556-512z" fill="#3292FF" p-id="2244"></path><path d="M512 1018.311111c-301.511111-227.555556-449.422222-420.977778-449.422222-597.333333C62.577778 147.911111 295.822222 5.688889 512 5.688889s449.422222 147.911111 449.422222 415.288889c0 176.355556-147.911111 369.777778-449.422222 597.333333zM512 17.066667C301.511111 17.066667 73.955556 159.288889 73.955556 420.977778c0 170.666667 142.222222 358.4 438.044444 580.266666 295.822222-221.866667 438.044444-409.6 438.044444-580.266666 0-261.688889-227.555556-403.911111-438.044444-403.911111z m0 927.288889C256 739.555556 125.155556 563.2 125.155556 420.977778c0-204.8 164.977778-358.4 386.844444-358.4s386.844444 153.6 386.844444 358.4c0 142.222222-130.844444 318.577778-386.844444 523.377778zM512 73.955556c-216.177778 0-375.466667 147.911111-375.466667 347.022222 0 136.533333 125.155556 307.2 375.466667 506.311111 250.311111-199.111111 375.466667-364.088889 375.466667-506.311111 0-199.111111-159.288889-347.022222-375.466667-347.022222z" fill="#3292FF" p-id="2245"></path></svg>
