<?xml version="1.0" standalone="no"?><!DOCTYPE svg PUBLIC "-//W3C//DTD SVG 1.1//EN" "http://www.w3.org/Graphics/SVG/1.1/DTD/svg11.dtd"><svg t="1648024731031" class="icon" viewBox="0 0 1024 1024" version="1.1" xmlns="http://www.w3.org/2000/svg" p-id="5846" xmlns:xlink="http://www.w3.org/1999/xlink" width="40" height="40"><defs><style type="text/css">@font-face { font-family: "feedback-iconfont"; src: url("//at.alicdn.com/t/font_1031158_u69w8yhxdu.woff2?t=1630033759944") format("woff2"), url("//at.alicdn.com/t/font_1031158_u69w8yhxdu.woff?t=1630033759944") format("woff"), url("//at.alicdn.com/t/font_1031158_u69w8yhxdu.ttf?t=1630033759944") format("truetype"); }
</style></defs><path d="M812.875093 411.578027l-0.003413 0.01536-43.562667-11.671894V203.436373c0-102.367573-112.216747-185.35424-250.63936-185.35424s-250.641067 82.986667-250.641066 185.35424l-0.360107 10.238294v187.89376l-41.89696 11.226453-0.006827-0.01536c-26.519893 7.120213-44.946773 24.33536-41.166506 38.469973l47.930026-12.84096 0.003414 0.013654 35.136853-9.413974v484.061867l0.360107 7.022933c0 48.899413 112.218453 88.546987 250.641066 88.546987s250.63936-39.645867 250.63936-88.546987V427.36128l36.800854 9.86112 0.00512-0.01536 47.92832 12.84096c3.77856-14.134613-14.64832-31.34976-41.168214-38.469973zM658.152107 87.01952c13.34272-9.344 37.459627 2.075307 53.86752 25.506133s18.889387 49.998507 5.543253 59.342507c-13.34272 9.347413-37.46304-2.0736-53.86752-25.50272-16.406187-23.432533-18.891093-50.00192-5.543253-59.34592z m65.14176 231.66976l-42.922667 82.507093c-88.410453-28.182187-231.00416-29.134507-323.060053-2.84672l-41.96352-79.786666c92.73856-87.42912 315.33056-87.386453 407.94624 0.126293zM325.08416 111.418027c16.406187-23.430827 40.521387-34.850133 53.865813-25.506134 13.346133 9.344 10.862933 35.91168-5.543253 59.342507-16.402773 23.430827-40.521387 34.850133-53.865813 25.504427-13.34784-9.340587-10.86464-35.909973 5.543253-59.3408zM307.2 348.16c28.352853 17.481387 41.51808 150.084267 38.674773 276.48H307.2V348.16z m0 501.76V648.533333h37.94432c-3.43552 88.183467-14.849707 169.470293-34.530987 201.386667h-3.413333z m15.423147 21.143893l47.071573-118.454613 0.116053-0.114347c32.37888 32.37888 262.442667 30.34112 295.401814-2.618026l1.11104 0.269653 49.6896 117.439147c-43.892053 43.88864-350.266027 46.600533-393.39008 3.478186zM737.08032 846.506667h-3.413333c-19.679573-31.916373-31.095467-113.2032-34.52928-201.386667h37.942613v201.386667z m0-225.28h-38.673067c-2.843307-126.395733 10.320213-258.998613 38.673067-276.48v276.48z" fill="#1296db" p-id="5847"></path></svg>
